<svg xmlns="http://www.w3.org/2000/svg" width="1300" height="448" viewBox="0 0 1300 448" role="img" aria-labelledby="title"><title id="title">Musashi Digital Studio</title><path id="musashi" fill="#1f3d5a" d="M488.230,247.164C487.252,246.543 487.023,241.205 487.230,223.929L487.500,201.500L536.185,201.241L584.870,200.981L587.032,198.241C588.755,196.057 589.094,194.593 588.697,191.039C588.364,188.063 587.463,185.983 585.988,184.789C583.972,183.157 581.085,183.000 553.099,183.000C528.762,183.000 521.204,182.683 516.535,181.467C504.198,178.254 495.248,171.028 490.160,160.175C487.516,154.535 487.500,154.356 487.500,131.000L487.500,107.500L490.736,100.667C494.763,92.165 504.889,81.398 512.811,77.196C524.731,70.872 523.636,70.958 588.534,71.242L647.500,71.500L647.768,95.750L648.036,120.000L598.740,120.000C541.976,120.000 545.000,119.527 545.000,128.402C545.000,137.203 544.250,136.995 576.079,137.031C591.160,137.048 606.825,137.493 610.888,138.021C620.470,139.265 627.686,142.644 634.480,149.070C640.925,155.165 644.182,160.380 646.479,168.281C647.848,172.990 648.093,177.544 647.826,193.325L647.500,212.614L643.575,220.557C636.622,234.627 624.413,244.267 610.109,246.979C603.682,248.198 490.131,248.370 488.230,247.164ZM690.746,246.914C684.535,245.450 677.020,241.115 672.011,236.106C669.410,233.505 665.756,228.255 663.891,224.439L660.500,217.500L660.179,195.662C659.889,175.890 660.054,173.181 661.927,167.014C664.618,158.156 671.222,149.353 679.146,144.061C690.122,136.732 690.708,136.649 734.479,136.240C755.917,136.040 773.593,135.740 773.760,135.574C773.926,135.407 774.329,133.016 774.656,130.260C775.159,126.010 774.926,124.926 773.125,123.125C771.016,121.016 770.624,121.000 721.983,121.000L672.965,121.000L673.233,96.250L673.500,71.500L730.809,71.242C779.328,71.023 789.128,71.218 794.706,72.511C809.801,76.012 821.872,85.883 829.240,100.750L833.500,109.347L833.770,177.852C833.986,232.387 833.782,246.521 832.770,247.163C831.040,248.262 695.455,248.024 690.746,246.914ZM774.000,191.500L774.000,179.000L747.500,179.000C715.409,179.000 717.000,178.352 717.000,191.427C717.000,199.341 717.161,199.981 719.635,201.927C722.146,203.903 723.482,204.000 748.135,204.000L774.000,204.000L774.000,191.500ZM845.448,246.725C845.179,246.024 845.081,235.787 845.229,223.975L845.500,202.500L854.500,201.856C859.450,201.502 881.782,201.164 904.128,201.106C937.785,201.018 944.956,200.758 945.926,199.589C947.770,197.368 948.371,191.311 947.062,188.150C946.405,186.565 944.885,184.767 943.684,184.154C942.250,183.424 930.335,182.942 909.000,182.753C877.697,182.476 876.287,182.380 870.715,180.148C862.507,176.860 853.508,168.280 849.582,160.000L846.500,153.500L846.500,130.500L846.500,107.500L850.184,99.966C852.210,95.823 855.806,90.230 858.175,87.538C863.711,81.249 872.643,75.500 880.783,72.985C886.876,71.103 890.177,71.000 944.105,71.000L1001.000,71.000L1001.000,95.500L1001.000,120.000L954.455,120.000L907.909,120.000L905.455,122.455C901.575,126.334 902.304,134.485 906.722,136.627C907.700,137.101 923.350,137.716 941.500,137.994L974.500,138.500L981.223,141.685C990.565,146.110 997.219,152.641 1001.774,161.855L1005.500,169.392L1005.853,186.331C1006.073,196.845 1005.755,205.590 1005.015,209.385C1001.627,226.768 985.487,243.204 968.201,246.875C964.620,247.635 943.941,248.000 904.419,248.000C857.951,248.000 845.837,247.738 845.448,246.725ZM218.885,226.500C218.821,215.500 218.833,187.826 218.910,165.003C219.048,124.033 219.025,123.531 217.126,125.503C216.068,126.601 201.832,143.250 185.489,162.500C169.147,181.750 154.183,199.264 152.236,201.421L148.696,205.342L145.598,201.458C141.179,195.918 106.745,153.700 95.218,139.688L85.500,127.875L84.672,131.688C84.217,133.784 83.608,160.363 83.319,190.750L82.793,246.000L49.397,246.000L16.000,246.000L16.001,180.750C16.002,144.863 16.300,93.562 16.664,66.750L17.327,18.000L50.558,18.000L83.789,18.000L93.646,30.250C130.326,75.831 149.409,99.025 150.034,98.781C150.431,98.627 157.155,91.075 164.976,82.000C190.832,51.997 204.386,36.692 213.873,26.787L223.245,17.000L255.123,17.000L287.000,17.000L287.000,131.500C287.000,222.443 286.743,245.996 285.750,245.981C285.062,245.971 269.762,246.083 251.750,246.231L218.999,246.500L218.885,226.500ZM1019.000,131.500L1019.000,16.000L1051.000,16.000L1083.000,16.000L1083.000,45.393C1083.000,71.273 1083.189,74.859 1084.582,75.393C1085.452,75.727 1102.889,76.009 1123.332,76.021C1159.624,76.042 1160.655,76.097 1167.070,78.362C1180.556,83.122 1191.284,93.092 1197.888,107.000L1200.500,112.500L1200.777,179.764L1201.054,247.027L1168.277,246.764L1135.500,246.500L1135.000,190.500C1134.725,159.700 1134.148,133.801 1133.719,132.947C1133.289,132.093 1131.644,130.630 1130.064,129.697C1127.596,128.239 1124.082,128.000 1105.096,128.000L1083.000,128.000L1083.000,187.500L1083.000,247.000L1051.000,247.000L1019.000,247.000L1019.000,131.500ZM1215.244,161.765L1215.500,76.500L1245.500,76.500L1275.500,76.500L1275.500,161.500L1275.500,246.500L1245.244,246.765L1214.989,247.029L1215.244,161.765ZM335.971,244.558C328.400,241.768 321.922,237.822 316.172,232.499C309.094,225.945 304.763,219.530 302.004,211.513C300.078,205.913 300.000,203.130 300.000,139.843L300.000,74.000L328.976,74.000L357.953,74.000L358.226,131.978L358.500,189.956L361.271,192.728L364.042,195.500L388.021,195.801L412.000,196.101L412.000,133.536L412.000,70.972L443.250,71.236L474.500,71.500L474.757,135.484C474.917,175.038 474.633,201.573 474.014,204.984C472.703,212.206 467.124,223.442 461.904,229.371C456.708,235.275 448.268,241.041 440.712,243.849C435.077,245.943 433.671,245.998 387.212,245.930C350.672,245.876 338.674,245.555 335.971,244.558ZM1215.454,64.740C1215.182,64.031 1215.081,53.787 1215.229,41.975L1215.500,20.500L1245.500,20.500L1275.500,20.500L1275.500,43.000L1275.500,65.500L1245.724,65.765C1222.146,65.975 1215.846,65.761 1215.454,64.740Z"/><path id="digital-studio" fill="#1f3d5a" d="M219.000,418.107L219.000,404.104L251.088,403.802L283.176,403.500L285.588,400.694C287.114,398.920 288.000,396.640 288.000,394.491L288.000,391.093L261.750,390.797C235.910,390.505 235.414,390.460 229.994,387.917C223.048,384.659 218.333,379.968 215.264,373.266C212.921,368.148 212.870,367.476 213.181,345.760L213.500,323.500L216.599,318.000C218.397,314.808 221.754,310.920 224.599,308.734C233.187,302.136 234.337,302.000 281.716,302.000L324.069,302.000L323.785,353.273L323.500,404.546L320.219,411.208C316.226,419.317 309.186,425.973 301.202,429.189C295.656,431.422 294.452,431.493 257.250,431.797L219.000,432.109L219.000,418.107ZM288.000,346.500L288.000,330.000L270.950,330.000C252.492,330.000 248.816,330.821 247.641,335.210C247.303,336.469 247.021,342.052 247.014,347.615C247.002,356.347 247.283,358.091 249.073,360.365L251.145,363.000L269.573,363.000L288.000,363.000L288.000,346.500ZM16.000,333.467L16.000,268.934L69.804,269.217L123.607,269.500L131.238,273.272C142.630,278.904 149.437,287.614 152.081,299.941C152.729,302.963 153.010,316.648 152.816,335.670L152.500,366.500L149.106,373.741C143.380,385.959 132.385,394.462 119.040,396.992C115.926,397.583 93.505,398.000 64.864,398.000L16.000,398.000L16.000,333.467ZM106.904,363.735C108.226,363.056 110.251,361.229 111.404,359.676C113.395,356.993 113.500,355.652 113.500,332.998C113.500,310.344 113.395,309.003 111.404,306.323C110.251,304.770 108.226,302.944 106.904,302.265C105.189,301.384 97.403,301.025 79.750,301.015L55.000,301.000L55.000,333.000L55.000,365.000L79.750,364.985C97.403,364.975 105.189,364.616 106.904,363.735ZM166.667,397.333C165.782,396.449 166.000,309.216 166.895,306.000L167.590,303.500L184.545,303.500L201.500,303.500L201.778,348.500C201.930,373.250 201.809,394.512 201.508,395.750C200.969,397.972 200.756,398.000 184.148,398.000C174.900,398.000 167.033,397.700 166.667,397.333ZM338.000,350.524L338.000,303.000L355.510,303.000L373.020,303.000L372.760,350.250L372.500,397.500L355.250,397.774L338.000,398.047L338.000,350.524ZM420.500,397.319C411.801,395.365 405.546,390.796 401.678,383.568C399.638,379.758 399.480,377.932 399.187,354.750L398.873,330.000L391.908,330.000L384.944,330.000L385.222,316.250L385.500,302.500L392.222,302.205L398.944,301.910L399.222,288.205L399.500,274.500L416.500,274.500L433.500,274.500L433.778,288.223L434.056,301.947L448.778,302.223L463.500,302.500L463.500,316.000L463.500,329.500L448.750,329.777L434.000,330.053L434.000,348.527C434.000,372.198 433.120,371.000 450.500,371.000L463.000,371.000L463.000,378.353C463.000,382.398 462.711,388.473 462.358,391.853L461.715,398.000L442.108,397.884C431.323,397.820 421.600,397.566 420.500,397.319ZM490.994,397.066C486.717,395.765 482.614,393.298 479.803,390.339C475.076,385.362 474.000,381.220 474.000,367.992C474.000,354.126 475.111,350.843 481.868,344.738C488.434,338.807 492.960,338.000 519.682,338.000L543.000,338.000L543.000,335.155C543.000,333.590 542.177,331.565 541.171,330.655C539.558,329.195 535.912,329.000 510.171,329.000L481.000,329.000L481.014,317.750C481.021,311.562 481.299,305.488 481.630,304.250L482.233,302.000L518.079,302.000C552.157,302.000 554.205,302.105 559.593,304.121C566.825,306.827 571.913,311.444 575.311,318.383L578.000,323.874L578.000,360.937L578.000,398.000L535.750,397.914C512.513,397.867 492.372,397.485 490.994,397.066ZM543.000,367.976L543.000,360.952L526.262,361.226L509.525,361.500L508.191,364.286C506.440,367.941 507.532,372.870 510.344,374.004C511.530,374.482 519.362,374.902 527.750,374.937L543.000,375.000L543.000,367.976ZM590.667,397.333C589.773,396.440 589.922,277.592 590.823,272.500L591.531,268.500L608.766,268.208L626.000,267.916L626.000,331.376C626.000,366.279 625.727,395.548 625.393,396.418C624.873,397.773 622.389,398.000 608.060,398.000C598.860,398.000 591.033,397.700 590.667,397.333ZM678.815,397.287C678.623,396.854 678.619,389.863 678.806,381.750L679.148,367.000L717.351,367.000C762.063,367.000 760.000,367.438 760.000,357.943C760.000,353.333 759.551,351.551 758.000,350.000C756.203,348.203 754.602,347.991 742.250,347.916C712.357,347.734 703.250,347.244 698.125,345.542C691.378,343.301 683.910,336.472 680.886,329.779C678.628,324.780 678.517,323.600 678.792,307.552C679.029,293.690 679.418,289.843 680.928,286.429C683.513,280.587 689.472,274.320 695.437,271.172L700.500,268.500L746.000,268.500L791.500,268.500L791.778,283.424C791.987,294.693 791.743,298.546 790.778,299.159C790.075,299.604 773.750,299.983 754.500,300.000C735.250,300.017 719.005,300.361 718.400,300.765C714.778,303.183 713.963,310.497 716.909,314.139C718.810,316.489 718.949,316.503 746.159,317.070C778.154,317.737 780.368,318.226 788.537,326.426C796.034,333.953 797.270,338.770 796.824,358.734C796.505,373.000 796.246,374.928 794.103,379.000C789.893,386.997 786.191,390.780 779.217,394.215L772.546,397.500L725.855,397.787C700.175,397.945 679.007,397.720 678.815,397.287ZM839.500,397.329C830.728,395.314 824.545,390.794 820.678,383.568C818.658,379.795 818.464,377.722 818.000,355.000L817.500,330.500L811.250,330.202L805.000,329.905L805.000,315.952L805.000,302.000L811.472,302.000L817.944,302.000L818.222,288.250L818.500,274.500L835.500,274.541L852.500,274.582L852.778,288.291L853.056,302.000L867.528,302.000L882.000,302.000L882.000,316.000L882.000,330.000L867.500,330.000L853.000,330.000L853.000,348.943C853.000,367.385 853.059,367.928 855.223,369.443C856.929,370.639 860.184,371.000 869.252,371.000L881.058,371.000L880.779,384.250L880.500,397.500L861.000,397.644C850.275,397.724 840.600,397.582 839.500,397.329ZM913.500,397.362C905.311,395.419 899.428,391.007 895.449,383.824L892.500,378.500L892.500,340.500L892.500,302.500L909.211,302.226L925.922,301.952L926.211,335.058C926.485,366.494 926.598,368.235 928.441,369.582C931.021,371.466 953.803,371.604 956.303,369.750C957.815,368.629 958.015,365.103 958.244,335.500L958.500,302.500L975.750,302.226L993.000,301.953L993.000,337.295C993.000,365.901 992.712,373.606 991.490,377.721C989.600,384.087 982.687,391.990 976.228,395.171C971.648,397.427 970.624,397.505 943.500,397.668C928.100,397.761 914.600,397.623 913.500,397.362ZM1024.672,396.573C1014.458,393.816 1006.163,384.920 1003.974,374.375C1003.218,370.734 1002.939,361.012 1003.179,346.635C1003.511,326.650 1003.753,324.048 1005.672,319.851C1008.378,313.934 1014.281,308.022 1020.577,304.923C1025.330,302.584 1026.372,302.489 1050.750,302.188L1076.000,301.875L1076.014,287.188C1076.021,279.109 1076.299,271.488 1076.630,270.250C1077.226,268.026 1077.434,268.000 1094.624,268.000L1112.015,268.000L1111.757,332.750L1111.500,397.500L1070.500,397.688C1039.445,397.831 1028.329,397.560 1024.672,396.573ZM1076.000,350.436L1076.000,329.871L1058.417,330.186C1042.273,330.474 1040.717,330.661 1039.395,332.472C1038.247,334.043 1038.010,337.900 1038.227,351.444L1038.500,368.443L1041.000,369.707C1042.705,370.569 1048.668,370.975 1059.750,370.985L1076.000,371.000L1076.000,350.436ZM1125.000,352.105C1125.000,326.837 1125.273,305.452 1125.607,304.582C1126.127,303.226 1128.626,303.000 1143.117,303.000L1160.020,303.000L1159.760,350.250L1159.500,397.500L1142.250,397.774L1125.000,398.047L1125.000,352.105ZM1195.734,396.912C1186.517,394.740 1179.319,388.878 1175.313,380.279C1172.898,375.098 1172.883,374.860 1173.190,348.279C1173.460,324.932 1173.727,321.085 1175.269,318.263C1178.255,312.800 1183.079,307.999 1188.410,305.186L1193.500,302.500L1226.000,302.500L1258.500,302.500L1263.638,305.210C1266.464,306.701 1270.377,309.790 1272.334,312.077C1278.462,319.236 1279.001,322.304 1278.990,349.928C1278.981,374.172 1278.946,374.573 1276.424,380.000C1273.470,386.355 1270.993,389.286 1265.750,392.632C1258.504,397.256 1252.690,398.008 1225.040,397.900C1210.993,397.844 1197.806,397.400 1195.734,396.912ZM1243.200,368.001C1244.765,366.069 1245.000,363.700 1245.000,349.889C1245.000,328.942 1245.986,330.000 1226.455,330.000C1212.345,330.000 1211.836,330.073 1209.455,332.455C1207.065,334.844 1207.000,335.310 1207.000,350.020C1207.000,358.800 1207.446,365.966 1208.065,367.122C1208.651,368.217 1210.114,369.497 1211.315,369.967C1212.517,370.437 1219.778,370.687 1227.450,370.523C1240.473,370.244 1241.520,370.076 1243.200,368.001ZM166.667,295.333C166.300,294.967 166.000,288.925 166.000,281.907C166.000,270.874 166.222,269.103 167.641,268.823C168.544,268.645 176.644,268.633 185.641,268.797L202.000,269.093L202.000,281.347C202.000,289.544 201.603,293.997 200.800,294.800C199.966,295.634 194.681,296.000 183.467,296.000C174.593,296.000 167.033,295.700 166.667,295.333ZM338.000,282.524L338.000,269.000L355.529,269.000L373.058,269.000L372.779,282.250L372.500,295.500L355.250,295.774L338.000,296.047L338.000,282.524ZM1125.446,294.719C1125.165,293.987 1125.062,287.789 1125.218,280.945L1125.500,268.500L1142.778,268.226L1160.057,267.953L1159.778,281.726L1159.500,295.500L1142.728,295.774C1129.501,295.991 1125.848,295.767 1125.446,294.719Z"/></svg>
